<svg width="24" height="22" viewBox="0 0 24 22" fill="none" xmlns="http://www.w3.org/2000/svg">
<path d="M6 22H18V4.88889H16.8V3.05556C16.8 2.24517 16.4839 1.46798 15.9213 0.89496C15.3587 0.321924 14.5956 0 13.8 0H10.2C9.40435 0 8.64129 0.321924 8.07869 0.89496C7.51607 1.46798 7.2 2.24517 7.2 3.05556V4.88889H6V22ZM9.6 3.05556C9.6 2.89348 9.66321 2.73803 9.77574 2.62344C9.88825 2.50882 10.0409 2.44444 10.2 2.44444H13.8C13.9591 2.44444 14.1118 2.50882 14.2243 2.62344C14.3368 2.73803 14.4 2.89348 14.4 3.05556V4.88889H9.6V3.05556ZM20.4 4.88889V22C21.3548 22 22.2705 21.6138 22.9455 20.926C23.6208 20.2384 24 19.3058 24 18.3333V8.55556C24 7.5831 23.6208 6.65047 22.9455 5.96282C22.2705 5.27519 21.3548 4.88889 20.4 4.88889ZM3.6 4.88889C2.64522 4.88889 1.72956 5.27519 1.05441 5.96282C0.379277 6.65047 0 7.5831 0 8.55556V18.3333C0 19.3058 0.379277 20.2384 1.05441 20.926C1.72956 21.6138 2.64522 22 3.6 22V4.88889Z" fill="url(#paint0_linear_709_1269)"/>
<defs>
<linearGradient id="paint0_linear_709_1269" x1="0" y1="22" x2="24" y2="22" gradientUnits="userSpaceOnUse">
<stop stop-color="#D9896A"/>
<stop offset="1" stop-color="#945439"/>
</linearGradient>
</defs>
</svg>
