<svg width="24" height="24" viewBox="0 0 24 24" fill="none" xmlns="http://www.w3.org/2000/svg">
<path d="M12 0C6.036 0 0 2.85415 0 8.30769V15.6923C0 21.1457 6.036 24 12 24C17.9639 24 24 21.1457 24 15.6923V8.30769C24 2.85415 17.9639 0 12 0ZM2.4 15.6923V13.4825C3.16001 14.1446 3.9648 14.677 4.8 15.0702V18.5428C3.2256 17.5938 2.4 16.464 2.4 15.6923ZM16.8 15.9655V19.6044C15.7596 19.9346 14.5596 20.1765 13.2 20.2652V16.5729C14.4077 16.4989 15.6106 16.296 16.8 15.9655ZM10.8 20.2672C9.59042 20.1957 8.38652 19.9748 7.2 19.6062V15.9674C8.35079 16.2886 9.5664 16.4972 10.8 16.5766V20.2672ZM19.2 18.5428V15.0702C20.0354 14.6778 20.8403 14.1454 21.6 13.4825V15.6923C21.6 16.464 20.7756 17.5938 19.2 18.5428ZM12 12.9231C5.78759 12.9231 2.4 9.87506 2.4 8.30769C2.4 6.74032 5.78759 3.69231 12 3.69231C18.2124 3.69231 21.6 6.74032 21.6 8.30769C21.6 9.87506 18.2124 12.9231 12 12.9231Z" fill="url(#paint0_linear_709_1265)"/>
<defs>
<linearGradient id="paint0_linear_709_1265" x1="0" y1="24" x2="24" y2="24" gradientUnits="userSpaceOnUse">
<stop stop-color="#D9896A"/>
<stop offset="1" stop-color="#945439"/>
</linearGradient>
</defs>
</svg>
