<svg width="150" height="150" viewBox="0 0 150 150" fill="none" xmlns="http://www.w3.org/2000/svg">
<path d="M66.0775 15.4986C65.8612 13.7921 66.099 12.0687 66.7755 10.4394C67.4521 8.81015 68.5524 7.31126 70.0055 6.0394C71.4587 4.76755 73.2323 3.75096 75.2121 3.05521C77.192 2.35947 79.334 2 81.5 2C83.666 2 85.808 2.35947 87.7879 3.05521C89.7677 3.75096 91.5413 4.76755 92.9945 6.0394C94.4476 7.31126 95.5479 8.81015 96.2245 10.4394C96.901 12.0687 97.1388 13.7921 96.9225 15.4986L90.9085 93.4313C90.6762 95.2793 89.5846 96.993 87.8459 98.2395C86.1072 99.4859 83.8455 100.176 81.5 100.176C79.1545 100.176 76.8928 99.4859 75.1541 98.2395C73.4154 96.993 72.3238 95.2793 72.0915 93.4313L66.0775 15.4986ZM66 124.727C66 121.472 67.633 118.351 70.5398 116.049C73.4467 113.747 77.3891 112.454 81.5 112.454C85.6109 112.454 89.5533 113.747 92.4602 116.049C95.367 118.351 97 121.472 97 124.727C97 127.982 95.367 131.104 92.4602 133.405C89.5533 135.707 85.6109 137 81.5 137C77.3891 137 73.4467 135.707 70.5398 133.405C67.633 131.104 66 127.982 66 124.727Z" fill="#A60000"/>
</svg>
