<svg width="24" height="24" viewBox="0 0 24 24" fill="none" xmlns="http://www.w3.org/2000/svg">
<path d="M13.5214 5.44453H19.5122V8.43991C19.5122 10.0942 18.1711 11.4353 16.5168 11.4353C14.8625 11.4353 13.5214 10.0942 13.5214 8.43991V5.44453Z" stroke="#E8D000" stroke-width="0.6"/>
<path d="M4.48787 5.44453H10.4786V8.43991C10.4786 10.0942 9.13755 11.4353 7.48325 11.4353C5.82894 11.4353 4.48787 10.0942 4.48787 8.43991V5.44453Z" stroke="#E8D000" stroke-width="0.6"/>
<rect x="11.6879" y="14" width="1" height="3" fill="#E8D000"/>
<rect x="9.68787" y="17" width="5" height="1.5" fill="#E8D000"/>
<rect x="9.68787" y="17" width="5" height="1.5" fill="url(#paint0_linear_708_1155)"/>
<rect x="7.43311" y="18.5" width="9.50939" height="1.5" fill="#E8D000"/>
<rect x="7.43311" y="18.5" width="9.50939" height="1.5" fill="url(#paint1_linear_708_1155)"/>
<path d="M7.18787 4H17.1879V9C17.1879 11.7614 14.9493 14 12.1879 14V14C9.42644 14 7.18787 11.7614 7.18787 9V4Z" fill="#E8D000"/>
<rect x="10.1879" y="7" width="4" height="4" rx="2" fill="url(#paint2_linear_708_1155)"/>
<defs>
<linearGradient id="paint0_linear_708_1155" x1="9.68787" y1="18.5" x2="14.6879" y2="18.5" gradientUnits="userSpaceOnUse">
<stop stop-color="#B3A95A"/>
<stop offset="1" stop-color="#E8D000"/>
</linearGradient>
<linearGradient id="paint1_linear_708_1155" x1="7.68781" y1="20" x2="16.6878" y2="20" gradientUnits="userSpaceOnUse">
<stop stop-color="#B2A95A"/>
<stop offset="1" stop-color="#E8D000"/>
</linearGradient>
<linearGradient id="paint2_linear_708_1155" x1="12.1879" y1="7" x2="12.1879" y2="11" gradientUnits="userSpaceOnUse">
<stop stop-color="#4B3025"/>
<stop offset="1" stop-color="#35221B"/>
</linearGradient>
</defs>
</svg>
