<svg width="150" height="150" viewBox="0 0 150 150" fill="none" xmlns="http://www.w3.org/2000/svg">
<path d="M59.375 18.75C70.1494 18.75 80.4825 23.0301 88.1012 30.6488C95.7199 38.2675 100 48.6006 100 59.375C100 69.4375 96.3125 78.6875 90.25 85.8125L91.9375 87.5H96.875L128.125 118.75L118.75 128.125L87.5 96.875V91.9375L85.8125 90.25C78.4409 96.5423 69.0669 99.9994 59.375 100C48.6006 100 38.2675 95.7199 30.6488 88.1012C23.0301 80.4825 18.75 70.1494 18.75 59.375C18.75 48.6006 23.0301 38.2675 30.6488 30.6488C38.2675 23.0301 48.6006 18.75 59.375 18.75V18.75ZM59.375 31.25C43.75 31.25 31.25 43.75 31.25 59.375C31.25 75 43.75 87.5 59.375 87.5C75 87.5 87.5 75 87.5 59.375C87.5 43.75 75 31.25 59.375 31.25Z" fill="#F8F8F8"/>
</svg>
