<svg width="24" height="25" viewBox="0 0 24 25" fill="none" xmlns="http://www.w3.org/2000/svg">
<g clip-path="url(#clip0_709_510)">
<rect x="3" y="4.84326" width="18" height="16" rx="2" fill="url(#paint0_linear_709_510)"/>
<path fill-rule="evenodd" clip-rule="evenodd" d="M3 6.84326C3 6.77423 3.0035 6.70601 3.01033 6.63877C3.11275 5.63026 3.96447 4.84326 5 4.84326H19C20.1046 4.84326 21 5.73869 21 6.84326V14.8433C21 15.9478 20.1046 16.8433 19 16.8433H5C3.89543 16.8433 3 15.9478 3 14.8433V6.84326ZM5 12.8433V8.84326C6.10457 8.84326 7 7.94783 7 6.84326H17C17 7.94783 17.8954 8.84326 19 8.84326V12.8433C17.8954 12.8433 17 13.7387 17 14.8433H7C7 13.7387 6.10457 12.8433 5 12.8433ZM14 10.8433C14 11.9478 13.1046 12.8433 12 12.8433C10.8954 12.8433 10 11.9478 10 10.8433C10 9.73869 10.8954 8.84326 12 8.84326C13.1046 8.84326 14 9.73869 14 10.8433Z" fill="url(#paint1_linear_709_510)"/>
</g>
<defs>
<linearGradient id="paint0_linear_709_510" x1="3.16372" y1="4.84326" x2="20.8364" y2="4.84326" gradientUnits="userSpaceOnUse">
<stop stop-color="#553D33"/>
<stop offset="1" stop-color="#1E140D"/>
</linearGradient>
<linearGradient id="paint1_linear_709_510" x1="3" y1="16.8433" x2="21" y2="16.8433" gradientUnits="userSpaceOnUse">
<stop stop-color="#D9896A"/>
<stop offset="1" stop-color="#945439"/>
</linearGradient>
<clipPath id="clip0_709_510">
<rect x="3" y="4.84326" width="18" height="16" rx="2" fill="white"/>
</clipPath>
</defs>
</svg>
