<svg width="24" height="24" viewBox="0 0 24 24" fill="none" xmlns="http://www.w3.org/2000/svg">
<path d="M12.9989 6.63807C12.9989 6.02958 12.5115 5.53172 11.9157 5.53172H6.30449L7.01943 2.01355L7.0411 1.75909C7.0411 1.41612 6.90027 1.10634 6.68362 0.874012L5.82786 0L0.476628 5.46534C0.184152 5.76406 0 6.18447 0 6.63807V13.8293C0 14.7476 0.725774 15.4888 1.62487 15.4888H8.93677C9.60839 15.4888 10.1825 15.0684 10.4317 14.4821L12.8798 8.62949C12.9556 8.44141 12.9989 8.2312 12.9989 8.021V6.63807Z" fill="url(#paint0_linear_709_1185)"/>
<path d="M10.9051 17.1903C10.8984 17.7987 11.3804 18.303 11.9762 18.3109L17.587 18.3852L16.8336 21.8937L16.8091 22.1478C16.8054 22.4908 16.9428 22.8024 17.1569 23.0376L18.003 23.9228L23.4137 18.5287C23.7094 18.2339 23.8981 17.816 23.9031 17.3624L23.9818 10.1717C23.9919 9.25349 23.2742 8.50269 22.3752 8.49078L15.0638 8.39397C14.3923 8.38507 13.8136 8.79785 13.5581 9.38087L11.046 15.2006C10.9682 15.3877 10.9225 15.5973 10.9202 15.8075L10.9051 17.1903Z" fill="url(#paint1_linear_709_1185)"/>
<defs>
<linearGradient id="paint0_linear_709_1185" x1="0" y1="15.4888" x2="12.9989" y2="15.4888" gradientUnits="userSpaceOnUse">
<stop stop-color="#D9896A"/>
<stop offset="1" stop-color="#945439"/>
</linearGradient>
<linearGradient id="paint1_linear_709_1185" x1="24" y1="8.5123" x2="11.0016" y2="8.37002" gradientUnits="userSpaceOnUse">
<stop stop-color="#D9896A"/>
<stop offset="1" stop-color="#945439"/>
</linearGradient>
</defs>
</svg>
